<svg xmlns="http://www.w3.org/2000/svg" viewBox="0 0 813.89 224.46"><defs><style>.cls-1,.cls-3{fill:#333;}.cls-1,.cls-4{fill-rule:evenodd;}.cls-2,.cls-4{fill:#fc2351;}</style></defs><g id="Capa_2" data-name="Capa 2"><g id="Layer_1" data-name="Layer 1"><path class="cls-1" d="M785.44,108c-2-3.58-4.54-6.57-8.37-8.23a9,9,0,0,0-5.59-.52,50.47,50.47,0,0,0-18.87,8.08,70.47,70.47,0,0,0-16.77,16.55,41.92,41.92,0,0,1-3.94,4.85,96.44,96.44,0,0,1-16.31,13.53,91.32,91.32,0,0,1-10.67,6,19.92,19.92,0,0,1-6.57,1.49c-2.35.21-3.45-1.17-2.91-3.41,1-4,2-7.92,4.41-11.35,3-4.33,5.89-8.72,9-13,2.23-3,2.17-6,.55-9.17-1.48-2.88-3.46-3.78-6.51-2.75a81,81,0,0,0-9.61,3.73,153.67,153.67,0,0,0-22,13.54c-.75.52-1.54,1-2.31,1.49l-.37-.42c.62-1.08,1.22-2.17,1.84-3.25,2-3.47,4-6.92,5.88-10.43,2.72-5-.6-12-5.54-13.77-2.24-.8-3-.51-3.59,1.74-2.21,9.15-7,17.07-11.87,24.94a7.07,7.07,0,0,1-1.21,1.46c-7,6.45-14.25,12.7-22.73,17.2a62.61,62.61,0,0,1-10.33,4.06c-3.16,1-5.07-.77-4.42-4a19.53,19.53,0,0,1,2-5.56c5.83-10.38,12.78-20,19.68-29.71,2.23-3.13,2.22-5.14-.22-8.09a13.17,13.17,0,0,0-3.49-2.95c-3-1.69-4.49-1.19-6.25,1.77-4.53,7.65-9.12,15.26-13.52,23a20.67,20.67,0,0,1-5.51,6.28,34.64,34.64,0,0,1-13.94,6.49c-.86.19-1.73.33-2.44.46-1.19-3.18-2.27-6.14-3.41-9.08-.92-2.36-2-4.67-2.84-7.06a10.37,10.37,0,0,1,2.79-11.7c1.82-1.76,3.86-3.3,5.77-5a19.3,19.3,0,0,0,3.11-3,4.26,4.26,0,0,0,.78-3c-.83-4-6.19-6.66-10-5.09a17.43,17.43,0,0,0-8.77,7.82,17.85,17.85,0,0,0-1.62,13.94c.42,1.53.47,2.83-.72,4-3.66,3.65-7.15,7.48-11,10.91-4.56,4.07-10.34,6.31-16.68,7.17-1.67-6.75-4.4-10.9-6.24-16.47-1.51-4.59-.24-8.81,3.51-12.06,1.86-1.6,3.8-3.09,5.67-4.67a21.84,21.84,0,0,0,2.58-2.41c1.33-1.54,1.47-2.87.19-4.42A23.79,23.79,0,0,0,552,94.07a4.19,4.19,0,0,0-4.88-.06,30.11,30.11,0,0,0-8.33,6.91c-3.55,4.48-4.67,9.4-2.45,14.77.84,2,.19,3.12-1.08,4.79-4,5.29-9.34,9.48-13.58,13.36-1.45,1.32-2.85,2.46-4.88,2.69a2.75,2.75,0,0,0-2.75,2.55,3.14,3.14,0,0,1-1.87,2.47c-2.17,1.31-4.28,2.75-6.49,4a34.06,34.06,0,0,1-5.39,2.56c-5.6,1.93-10.59-.75-11.83-6.53a31.83,31.83,0,0,1-.48-8.1,7,7,0,0,1,1.75-3.55,14.15,14.15,0,0,1,2.76-2.17c3.74-2.87,7.64-5.55,11.15-8.67a75.43,75.43,0,0,0,7.23-8.1,6.74,6.74,0,0,0,1.35-6.15c-1.47-6.07-6.93-9-12.77-6.85a15.63,15.63,0,0,0-3.58,1.92,47.71,47.71,0,0,0-19.28,27.48,11.41,11.41,0,0,1-4.57,7.05c-1.34.93-2.53,2.07-3.79,3.11a96.64,96.64,0,0,1-17.8,12,23.12,23.12,0,0,1-3.21,1.46c-2.91,1-5.39-.23-6.16-3.19a13.7,13.7,0,0,1-.38-5.36c.69-4.47,1.69-8.89,2.62-13.32a12.77,12.77,0,0,1,3.6-6.26c9.18-9.67,18.35-19.35,27.38-29.17a134.59,134.59,0,0,0,19.25-26.28,35.64,35.64,0,0,0,4.31-11.68,11.08,11.08,0,0,0,0-4,10.53,10.53,0,0,0-15.13-7.08,40.86,40.86,0,0,0-11.91,9.82c-18.23,21.06-31.19,44.9-37.74,72.08a69.54,69.54,0,0,0-1.8,19.45c.28,6.5,5,10.51,11.5,9.65a19.83,19.83,0,0,0,5.18-1.56,60.24,60.24,0,0,0,13-7.9c4.24-3.27,8.37-6.67,12.56-10,.51-.4,1.09-.71,1.8-1.16.24,1.86.41,3.39.64,4.91,1,6.7,5.09,10.94,11.65,12.38a20.81,20.81,0,0,0,14.25-2c3.4-1.73,6.68-3.67,10-5.51.84-.46,1.7-.87,2.68-1.37.71,1.32,1.23,2.48,1.92,3.52a53.52,53.52,0,0,0,4.42,6.17,13.35,13.35,0,0,0,12,4.52c8.76-1,16.14-8.29,17.12-15.28.13-.93.27-1.86,1.36-2.12,1.62-.39,3.26-.73,5-1.11A24,24,0,0,0,563,152.89a14,14,0,0,0,8.93,4.75c8.85.87,18.48-6,20.31-14.72a3.4,3.4,0,0,1,3.1-3.12,35.71,35.71,0,0,0,12.28-5c.48-.3,1-.52,1.86-1-.82,2.39-1.6,4.31-2.16,6.3a11,11,0,0,0,8.84,14,12.43,12.43,0,0,0,6.16-.64,47.48,47.48,0,0,0,12.74-6.65c4.27-3.07,8.41-6.31,12.63-9.46a11.28,11.28,0,0,1,1.4-.8,27.37,27.37,0,0,1-3.44,6c-3.17,4-2.8,8.13-.2,12.07,2.3,3.5,3.67,3.46,5.61-.3a69.52,69.52,0,0,1,10.69-15.36c8.82-9.58,19.62-16.31,31.32-21.72a20.94,20.94,0,0,1,3.14-.84c-1.68,3.22-3.12,5.8-4.4,8.47-1.67,3.51-3.44,7-4.76,10.65-1.91,5.24-.64,10,3,14.12,3.94,4.41,8.47,5.49,13.67,2.7a122.17,122.17,0,0,0,12.24-7.58c3.77-2.65,7.24-5.74,10.86-8.63.51-.41,1.09-.73,2-1.35-.42,1.52-.74,2.55-1,3.59-1.58,6.74,1.2,12.06,7.6,14.65,2.74,1.12,5.27,1,7.65-.92,3.44-2.82,7-5.46,10.37-8.38,5.14-4.46,10.11-9.11,15.19-13.64a43.18,43.18,0,0,1,3.54-2.49,50.22,50.22,0,0,1-.44,5.5,88.38,88.38,0,0,1-6.26,18.22,22,22,0,0,1-1.34,2.36,6.89,6.89,0,0,1-3.45,2.92,148,148,0,0,1-19.73,7c-13.5,3.65-27.27,4.93-41.21,4.92H412.68a3.35,3.35,0,0,0-1.35.06,6.54,6.54,0,0,0-1.32,1.06c.4.38.74.93,1.22,1.1a6.24,6.24,0,0,0,1.89.07q144.54,0,289.09,0a148,148,0,0,0,47.38-7.28,13.71,13.71,0,0,1,1.44-.34,9.61,9.61,0,0,1-2.3,2c-6.75,4.75-13.6,9.37-20.21,14.3a71.58,71.58,0,0,0-13.5,13,31.54,31.54,0,0,0-6.4,13.08c-1.54,7.4,2.81,14.48,9.92,16a14.88,14.88,0,0,0,10.74-1.86,47.77,47.77,0,0,0,10.33-7.94,142,142,0,0,0,17.14-21.44,218.26,218.26,0,0,0,19-34.83c.86-2,2.17-4.63,3.93-9.09.7-2.7,1.39-5,1.91-7.42,1.21-5.41-.52-9.83-4.72-13.33-2-1.65-3.57-1.75-5.72-.36a29.52,29.52,0,0,0-3.2,2.52c-6,5.25-12,10.59-18.07,15.72a94.73,94.73,0,0,1-8.24,5.75,6.3,6.3,0,0,1-2.25.9,2.23,2.23,0,0,1-2.85-2.12,9.09,9.09,0,0,1,.24-2.69,26.46,26.46,0,0,1,3.38-8.56,78.87,78.87,0,0,1,28-26.83,28.67,28.67,0,0,1,9.14-3.35c3.63-.69,5.64,1.61,4.33,5.13-.76,2-1.85,3.93-2.76,5.91-.28.59-.47,1.23-.91,2.39a10.85,10.85,0,0,0,2.41-1,19.06,19.06,0,0,0,5.17-6.92A4.7,4.7,0,0,0,785.44,108ZM492.39,120.09a42.54,42.54,0,0,1,8.81-12.28,16.56,16.56,0,0,1,4.21-2.88c1.78-.82,2.88.11,2.51,2.06a10.37,10.37,0,0,1-1.42,3.77,53.28,53.28,0,0,1-16.42,15.53s-.14,0-.52-.09C490.51,124.12,491.39,122.07,492.39,120.09Zm-45.81-1.72c8.05-20.32,18.16-39.48,32-56.49a35.39,35.39,0,0,1,8.67-8.16,10.34,10.34,0,0,1,3.77-1.28c2.28-.33,3.37.89,3.1,3.19a6.81,6.81,0,0,1-.44,1.57,72.21,72.21,0,0,1-6.66,13.94,193,193,0,0,1-17,22.9c-7,8-14.28,15.91-21.45,23.84-.57.63-1.25,1.16-2.32,2.14A9.87,9.87,0,0,1,446.58,118.37Zm92.26,20.22a12.23,12.23,0,0,1-1,2.41c-2.29,5.52-8.11,8.57-13.41,7.26a8.64,8.64,0,0,1-6.39-6.09c-.58-1.75.26-2.62,1.44-3.4s4.52-3.14,5.22-3.81a86.49,86.49,0,0,0,13.64-13.76C540.45,127.09,540.34,132.64,538.84,138.59Zm42.42.13c-.48,1.14-.66,1.77-1,2.55-2.13,4.6-5.88,7.1-10.59,7.23-4.34.11-7.59-2-9-5.95a17.26,17.26,0,0,1-.53-3c-.05-.91,2-1.71,3.71-2.9,6.2-4.7,11.21-10.41,16.67-16.27A29.58,29.58,0,0,1,581.26,138.72ZM760.91,161.5c-7.25,13.43-15,26.52-25.27,37.95a114.35,114.35,0,0,1-8.54,8.37,22.57,22.57,0,0,1-9,5,9.69,9.69,0,0,1-2.12.41c-2.21.13-3.54-.8-3.63-3.08a25,25,0,0,1,.66-6.44,23.69,23.69,0,0,1,4.41-8.67,80.67,80.67,0,0,1,14.24-14.54c8.95-7.28,18.67-13.47,28.34-19.72a8.57,8.57,0,0,1,1.3-.52A9.42,9.42,0,0,1,760.91,161.5Z"/><path class="cls-1" d="M402.77,96.11a34.67,34.67,0,0,0-4-2.63c-3.67-1.79-7.45-3.33-11.1-5.15a5.43,5.43,0,0,0-5.15.08,164.38,164.38,0,0,1-25.15,9.52,110.13,110.13,0,0,1-20.05,3.55,14,14,0,0,1-6.66-1c-3.85-1.61-4.6-4.85-1.56-7.65a28.2,28.2,0,0,1,6-4.2,48.77,48.77,0,0,1,20.06-5.49c6.42-.38,12.87-.35,19.31-.4a9.59,9.59,0,0,0,5.13-1.39c8.32-5.07,16.25-10.64,23-17.76a53.73,53.73,0,0,0,8.24-10.79,26.37,26.37,0,0,0,3.65-12.39,15.48,15.48,0,0,0-6.69-13.3c-4.46-3.31-9.63-5-15-6.07a106.24,106.24,0,0,0-30.62-1.25c-25,2.3-48.08,10.51-69.63,23.14A107.51,107.51,0,0,0,265.82,64.7c-7.15,8.14-12.13,17.37-14,28.14a26.26,26.26,0,0,0,.24,10.81,9.63,9.63,0,0,0,9.79,7.81,30.13,30.13,0,0,0,15.05-4.11A68.23,68.23,0,0,0,293.13,94.6a162.92,162.92,0,0,0,18.53-23.81c.72-1.1,1.63-2.07,2.52-3.18a2,2,0,0,1,.65,2.88c-.68,1.38-1.3,2.79-2.07,4.13-6.79,11.92-15,22.68-25.66,31.45a46,46,0,0,1-11.77,7.24c-10.27,4.19-21.84.25-27.89-6.09A20.7,20.7,0,0,1,241.59,93a38.12,38.12,0,0,1,4.9-19.28,66.1,66.1,0,0,1,16.82-19.78c12.27-10,26.08-17.38,40.78-23.1a207.12,207.12,0,0,1,45.85-12.35c9.8-1.41,19.67-2.4,29.56-1.76,9.15.59,18.21,2,26.86,5.29a43,43,0,0,1,13.5,8c7.28,6.53,9.1,15.28,5.05,24.22-2.29,5-5.86,9.14-9.75,13-6.78,6.69-14.74,11.72-23,16.32-.84.47-1.66,1-2.8,1.64a14.06,14.06,0,0,0,1.45.77,78.94,78.94,0,0,1,15.58,8.3,14.82,14.82,0,0,0,7.39,2.37c4.25.3,8.49.7,12.73,1.12,2.54.25,4.05,1.73,4.82,4.58L413.2,99.76a29.18,29.18,0,0,1,2.29,2.84,33.88,33.88,0,0,1,6,14.13c1,6.57-.48,12.63-3.53,18.36a61.56,61.56,0,0,1-12.89,16.42c-15,13.85-32.48,23.65-51.81,30.14-10.36,3.48-21,5.8-32,5.69A62.88,62.88,0,0,1,298,182.78a26.59,26.59,0,0,1-9.52-6.18c-5.45-5.78-6.26-12.28-2.36-19.19a49.23,49.23,0,0,1,10.06-12.07,164.76,164.76,0,0,1,31.51-22.22c17.86-9.84,36.4-18,56.29-22.84,5.45-1.32,11-2.09,16.55-3.12.71-.13,2.24-.37,2.94-.52C403.42,96.64,403,96.34,402.77,96.11Zm7.49,15.28a17.59,17.59,0,0,0-2.35-8.84,3.37,3.37,0,0,0-3.76-2c-4.4.63-8.86.89-13.21,1.74a187.59,187.59,0,0,0-74.28,32.15,82.7,82.7,0,0,0-17.49,16.65,32.28,32.28,0,0,0-6.56,14.18c-1.11,6.18,1.43,11.46,7,14.3a29,29,0,0,0,14.22,3,80.21,80.21,0,0,0,14.54-1.9A124.91,124.91,0,0,0,391.57,146C397,140.54,402,134.8,405.5,128,408.2,122.76,410.15,117.33,410.26,111.39ZM331.61,95.48c-.13,1.73,1.72,1.86,3.58,1.76a64.76,64.76,0,0,0,8.35-.88c9.42-1.79,18.14-5.54,26.65-9.82a18.14,18.14,0,0,0,1.59-1.1c-2-.2-3.56-.39-5.07-.48a57.62,57.62,0,0,0-31.47,6.54A6.47,6.47,0,0,0,331.61,95.48Z"/><path class="cls-1" d="M310.19,124.3c-4.3-.61-6.52-3.43-6-7.35a43.06,43.06,0,0,1,4.25-13.43A276.9,276.9,0,0,1,336.91,57c6-7.86,12.35-15.43,18.79-22.94a72.38,72.38,0,0,1,8.4-7.7c1.9-1.61,3.57-1.49,5.28.3A50.89,50.89,0,0,1,373.91,32c1.12,1.54.87,2.77-.49,4.12a8.74,8.74,0,0,1-1.05.86c-15.68,11.46-28.7,25.52-40.17,41.09a184.08,184.08,0,0,0-14,21.37,63.86,63.86,0,0,0-7.75,23.33C310.38,123.24,310.29,123.68,310.19,124.3Z"/><path class="cls-2" d="M417.85,180.5c2.28,0,3.25,1.36,2.89,3.75l-.07.47h-2.22l.1-.62c.16-1.07-.21-1.47-1-1.47s-1.23.4-1.39,1.47c-.46,3.07,4,3.65,3.4,7.91-.36,2.39-1.76,3.76-4.06,3.76s-3.3-1.37-2.94-3.76l.14-.91H415l-.16,1.06c-.16,1.07.25,1.45,1,1.45s1.27-.38,1.43-1.45c.46-3.07-4-3.64-3.4-7.91C414.19,181.86,415.57,180.5,417.85,180.5Z"/><path class="cls-2" d="M426.61,184.25c.36-2.39,1.82-3.75,4.13-3.75s3.35,1.36,3,3.75L432.57,192c-.36,2.39-1.82,3.76-4.13,3.76s-3.35-1.37-3-3.76Zm1.16,7.91c-.16,1.07.25,1.47,1,1.47s1.28-.4,1.44-1.47l1.21-8.06c.16-1.07-.25-1.47-1-1.47s-1.28.4-1.44,1.47Z"/><path class="cls-2" d="M440.48,180.67h2.35l-1.92,12.79h3.86l-.32,2.14h-6.21Z"/><path class="cls-2" d="M454.65,180.67l-1.73,11.51c-.16,1.07.25,1.45,1,1.45s1.27-.38,1.43-1.45l1.73-11.51h2.22L457.59,192c-.35,2.38-1.75,3.75-4.06,3.75s-3.29-1.37-2.94-3.75l1.71-11.37Z"/><path class="cls-2" d="M471,190l-.3,2c-.35,2.39-1.75,3.76-4.06,3.76s-3.29-1.37-2.94-3.76l1.17-7.76c.36-2.39,1.76-3.75,4.06-3.75s3.3,1.36,2.94,3.75l-.22,1.45h-2.22l.24-1.6c.16-1.07-.25-1.47-1-1.47s-1.28.4-1.44,1.47L466,192.16c-.16,1.07.25,1.45,1,1.45s1.27-.38,1.43-1.45l.32-2.13Z"/><path class="cls-2" d="M478.52,180.67h2.34l-2.23,14.93h-2.35Z"/><path class="cls-2" d="M486.53,184.25c.36-2.39,1.83-3.75,4.13-3.75s3.36,1.36,3,3.75L492.5,192c-.36,2.39-1.83,3.76-4.13,3.76s-3.36-1.37-3-3.76Zm1.16,7.91c-.16,1.07.25,1.47,1,1.47s1.28-.4,1.44-1.47l1.21-8.06c.16-1.07-.25-1.47-1-1.47s-1.28.4-1.44,1.47Zm5.94-14.65-2.53,2.37h-1.58l1.8-2.37Z"/><path class="cls-2" d="M501.88,184.78l-1.62,10.82h-2.11l2.24-14.93h2.94l1.07,8.93,1.34-8.93h2.09l-2.24,14.93h-2.41Z"/><path class="cls-2" d="M522.21,180.67h3.71c2.35,0,3.31,1.3,3,3.69l-1.13,7.55c-.36,2.38-1.71,3.69-4.06,3.69H520Zm2,2.13-1.6,10.66H524c.75,0,1.25-.38,1.41-1.45l1.17-7.76c.16-1.07-.23-1.45-1-1.45Z"/><path class="cls-2" d="M535.61,180.67H538l-2.23,14.93h-2.35Z"/><path class="cls-2" d="M546.88,187.28h3.29l-.71,4.73c-.36,2.39-1.76,3.76-4.06,3.76s-3.3-1.37-2.94-3.76l1.16-7.76c.36-2.39,1.76-3.75,4.07-3.75s3.29,1.36,2.93,3.75l-.21,1.45h-2.22l.24-1.6c.16-1.07-.25-1.47-1-1.47s-1.28.4-1.44,1.47l-1.21,8.06c-.16,1.07.26,1.45,1,1.45s1.28-.38,1.44-1.45l.41-2.75h-1.07Z"/><path class="cls-2" d="M557.37,180.67h2.35l-2.24,14.93h-2.35Z"/><path class="cls-2" d="M565.43,180.67h7.26l-.32,2.13h-2.46L568,195.6h-2.34l1.92-12.8h-2.46Z"/><path class="cls-2" d="M583,195.6h-2.37v-2.71H577.7l-.81,2.71h-2.16l4.63-14.93h3.44Zm-4.65-4.74h2.27v-7.55Z"/><path class="cls-2" d="M591,180.67h2.35l-1.92,12.79h3.86l-.32,2.14h-6.21Z"/><path class="cls-2" d="M612.3,187h3.22l-.32,2.13H612l-.66,4.37h4.06l-.32,2.14h-6.4l2.23-14.93h6.41L617,182.8h-4.06Z"/><path class="cls-2" d="M624.91,184.78l-1.62,10.82h-2.11l2.24-14.93h2.94l1.07,8.93,1.34-8.93h2.1l-2.24,14.93h-2.41Z"/><path class="cls-2" d="M648.62,191.27l3.2-10.6h3.26l-2.24,14.93h-2.22l1.61-10.71L649,195.6h-2.22L646.61,185,645,195.6h-2l2.24-14.93h3.27Z"/><path class="cls-2" d="M660.75,184.25c.36-2.39,1.82-3.75,4.13-3.75s3.35,1.36,3,3.75L666.71,192c-.36,2.39-1.82,3.76-4.12,3.76s-3.36-1.37-3-3.76Zm1.16,7.91c-.16,1.07.25,1.47,1,1.47s1.28-.4,1.44-1.47l1.21-8.06c.16-1.07-.25-1.47-1-1.47s-1.28.4-1.44,1.47Z"/><path class="cls-2" d="M674.62,180.67h3.71c2.35,0,3.31,1.3,2.95,3.69l-1.13,7.55c-.36,2.38-1.71,3.69-4.06,3.69h-3.71Zm2,2.13-1.6,10.66h1.32c.75,0,1.25-.38,1.41-1.45l1.17-7.76c.16-1.07-.23-1.45-1-1.45Z"/><path class="cls-2" d="M693.35,195.6H691v-2.71H688.1l-.81,2.71h-2.15l4.63-14.93h3.43Zm-4.64-4.74H691v-7.55Z"/><path class="cls-3" d="M769.66,153.92s2.09-1.72,5.46-4a76.19,76.19,0,0,1,13.22-7.22c1.28-.54,2.61-1,3.94-1.44a39.16,39.16,0,0,1,4-1c.67-.13,1.33-.26,2-.33a16.55,16.55,0,0,1,2-.18,15.41,15.41,0,0,1,1.92,0,15.94,15.94,0,0,1,1.84.12,13.27,13.27,0,0,1,1.71.26,10.33,10.33,0,0,1,1.55.37,17,17,0,0,1,2.49.92,15.51,15.51,0,0,1,1.54.8l.54.31a3.93,3.93,0,1,1-3.89,6.83,3.76,3.76,0,0,1-.46-.32l-.24-.18-.27-.21a7.84,7.84,0,0,0-.77-.6,9,9,0,0,0-1.37-.78,5.19,5.19,0,0,0-.92-.39,7.47,7.47,0,0,0-1.1-.36,10.14,10.14,0,0,0-1.26-.3,14,14,0,0,0-1.41-.21,12.75,12.75,0,0,0-1.55-.1,15.5,15.5,0,0,0-1.67,0,30.31,30.31,0,0,0-3.57.32c-1.22.19-2.47.42-3.72.72a72.83,72.83,0,0,0-13.56,4.82c-3.62,1.66-5.92,3-5.92,3a.5.5,0,0,1-.56-.82Z"/><path class="cls-4" d="M69.5,66.61a145.88,145.88,0,0,0-35.83-2.43A49.82,49.82,0,0,0,19.81,67a21.76,21.76,0,0,0-8.2,5,14.86,14.86,0,0,0-4.36,9.19c-.9,8.71,1.6,16.31,8.07,22.22a53.78,53.78,0,0,0,10.92,7.8c19.06,10,39.54,15.8,60.65,19.56,2,.36,4.08.74,6.11,1.12.09,0,.56.07.45.42a13.67,13.67,0,0,1-3.65,4.28,4.35,4.35,0,0,1-3.2.38c-7.25-1.38-14.51-2.7-21.69-4.39a209.79,209.79,0,0,1-39.75-14,49.37,49.37,0,0,1-16.76-12c-7.13-8-9.58-17.51-7.89-28,1.14-7,5.28-12.18,11.4-15.71s13.11-5,20.18-5.6c12-1.06,23.82.18,35.63,1.93Z"/><path class="cls-1" d="M218.29,28.91l-7.21-2c0-.79.06-1.36,0-1.91-.26-2.16-1.43-3-3.5-2.66-4.89.9-13.74,9.84-14.62,14.76-.56,3.16.74,4.32,3.88,3.49l.66-.2c1.29-.44,2.72-1.46,3.84-1.2,2.28.54,4.39,1.78,6.58,2.72.43.22,1,.45,1,.45a24.62,24.62,0,0,1-3.28,2.84,46.41,46.41,0,0,1-14.43,9.35c-8.05,3.13-14.46,8.31-20.55,14.26Q139.23,99.56,107.49,130c-9.82,9.42-19.89,18.59-29.87,27.84-1.31,1.21-2.8,2.22-4.2,3.32l-.6-.56c.78-1,1.48-2.17,2.35-3.14,5-5.58,10-11.22,15.12-16.66q16.9-17.82,34-35.48Q147.61,81.14,171,57.09A40.61,40.61,0,0,0,178.9,45.8c5.2-11.15,13.52-19.71,23.08-27.17a22,22,0,0,1,8.89-4.45,8.11,8.11,0,0,1,8.45,2.61c2.23,2.56,2.11,5.51,1,8.46A32.47,32.47,0,0,1,218.29,28.91Z"/><path class="cls-4" d="M199.74,34.67c1.56-1.62,2.91-3.17,4.44-4.5a2.8,2.8,0,0,1,2.22-.3C211.77,31.26,217,33,221.75,36c9.51,6.14,11.65,17.15,5.16,26.48a27.81,27.81,0,0,1-10.24,8.59c-6.31,3.32-13.14,5-20.11,6.11-9.15,1.45-18.38,1.37-27.61,1.27-.18,0-.36-.23-.93-.61a75.85,75.85,0,0,1,6.09-6c.81-.66,2.39-.53,3.62-.51a94.55,94.55,0,0,0,26.37-3.06A38.46,38.46,0,0,0,217,62.55a15.09,15.09,0,0,0,6.1-8.55c1-4,.22-7.49-3.1-9.9a57.89,57.89,0,0,0-9.51-5.55C207.16,37,203.59,36,199.74,34.67Z"/><path class="cls-4" d="M184.43,28.69s-16.59-3.52-23.76-15.52,3-12.5,5.67-8.17,9,12.5,23.66,17.67A49.88,49.88,0,0,0,184.43,28.69Z"/><path class="cls-3" d="M191.84,211.6l-6.38,9.58,4.93,3.28,6.37-9.58,4.5,7.44L205.11,197l-21.88,13.33Z"/><path class="cls-2" d="M210,193.88a3,3,0,0,1-2.57-4.55c3.66-6.1,7.48-15.33,4.89-24.6-1.85-6.64-8.54-15.46-29.88-19.79a127.52,127.52,0,0,0-26.2-2.27,3,3,0,0,1-.22-6c2.21-.08,54.22-1.68,62.08,26.44,3.17,11.33-1.26,22.19-5.52,29.31A3,3,0,0,1,210,193.88Z"/><path class="cls-3" d="M143.45,99.73a51.84,51.84,0,0,0-.17,5.43c0,2.38.27,5.63.49,8a70.93,70.93,0,0,0,3.81,16l.06.16a87.29,87.29,0,0,1,4.76,18.49h0a75.8,75.8,0,0,1,.77,8.12c.11,2.4.13,4.8,0,7.21l-.71,19.36a250.2,250.2,0,0,1-77.45,0l-.71-19.36q-.14-3.91.08-7.8c.33-2.84.5-5.34.83-8.13a86.84,86.84,0,0,1,4.67-17.89l0-.13a70.7,70.7,0,0,0,3.82-16,62.19,62.19,0,0,0,.5-8.07,71,71,0,0,0-3.35-22L76.81,70.25c-1-3.4-2-6.15-2.86-8.94L67.38,40.78a5.32,5.32,0,0,1,3.48-6.69l20-6.25a24.08,24.08,0,0,0,7.48-3.2,15,15,0,0,0,5.93-9.89l.81-5.67a1.14,1.14,0,0,1,1.12-1h15.16a1.14,1.14,0,0,1,1.11,1l.81,5.67a15,15,0,0,0,5.93,9.89,26.59,26.59,0,0,0,7.48,3.2l20,6.25a5.32,5.32,0,0,1,3.47,6.69L153.39,62c-.8,2.85-1.54,4.74-2.83,8.85l-.86,2.67,12.72-13.17,5.89-18.42c.68-2.13.37-5.78-1.29-9a13.37,13.37,0,0,0-7.9-6.62L136,19.13a6.82,6.82,0,0,1-4.7-5.52l-.81-5.68A9.28,9.28,0,0,0,121.36,0H106.2a9.29,9.29,0,0,0-9.15,7.93l-.81,5.68a6.81,6.81,0,0,1-4.7,5.52l-23.1,7.22a13.41,13.41,0,0,0-8.78,16.89l13.55,42.4a63.14,63.14,0,0,1-.86,40.75l0,.06a94.49,94.49,0,0,0-6.09,37l.82,22.69A4.06,4.06,0,0,0,70.44,190a258.92,258.92,0,0,0,43.34,3.66A258.92,258.92,0,0,0,157.12,190a4.06,4.06,0,0,0,3.37-3.85l.83-22.69a94.68,94.68,0,0,0-6.09-37l0,0A64.48,64.48,0,0,1,153,90.51Z"/><path class="cls-4" d="M102.91,139.06c1.65-1.75,2.94-3,4.13-4.41.94-1.07,2.06-.74,3.21-.64,7.13.55,14.25,1.24,21.4,1.6,10.25.51,20.52.76,30.78,1.14.79,0,1.57.14,2.42.22a5.92,5.92,0,0,1-.18,1.15c-1.67,4.06-1.67,4.08-6,4-17.32-.2-34.62-.7-51.86-2.49C105.68,139.55,104.58,139.32,102.91,139.06Z"/></g></g></svg>