<?xml version="1.0" encoding="utf-8"?>
<!-- Generator: Adobe Illustrator 24.1.2, SVG Export Plug-In . SVG Version: 6.00 Build 0)  -->
<svg version="1.1" id="Capa_1" xmlns="http://www.w3.org/2000/svg" xmlns:xlink="http://www.w3.org/1999/xlink" x="0px" y="0px"
	 viewBox="0 0 290 109" style="enable-background:new 0 0 290 109;" xml:space="preserve">
<style type="text/css">
	.st0{fill:#FC931B;}
	.st1{fill:#333333;}
	.st2{fill-rule:evenodd;clip-rule:evenodd;fill:#FC931B;}
	.st3{fill-rule:evenodd;clip-rule:evenodd;fill:#333333;}
</style>
<g>
	<g>
		<g>
			<g>
				<g>
					<path class="st0" d="M120.82,67.91c1.34,0,1.92,0.8,1.7,2.21l-0.04,0.28h-1.31l0.06-0.36c0.09-0.63-0.12-0.87-0.56-0.87
						s-0.73,0.24-0.82,0.87c-0.27,1.81,2.38,2.15,2,4.66c-0.21,1.41-1.03,2.21-2.39,2.21c-1.36,0-1.94-0.8-1.73-2.21l0.08-0.54h1.31
						l-0.09,0.63c-0.09,0.63,0.15,0.85,0.59,0.85c0.44,0,0.75-0.23,0.84-0.85c0.27-1.81-2.38-2.15-2-4.66
						C118.67,68.72,119.48,67.91,120.82,67.91z"/>
				</g>
			</g>
			<g>
				<g>
					<path class="st0" d="M125.98,70.12c0.21-1.41,1.07-2.21,2.43-2.21s1.98,0.8,1.77,2.21l-0.69,4.57
						c-0.21,1.41-1.07,2.21-2.43,2.21c-1.36,0-1.98-0.8-1.77-2.21L125.98,70.12z M126.66,74.78c-0.09,0.63,0.15,0.87,0.59,0.87
						c0.44,0,0.75-0.24,0.85-0.87l0.71-4.75c0.09-0.63-0.15-0.87-0.59-0.87c-0.44,0-0.75,0.24-0.85,0.87L126.66,74.78z"/>
				</g>
			</g>
			<g>
				<g>
					<path class="st0" d="M134.15,68.01h1.38l-1.13,7.53h2.27l-0.19,1.26h-3.66L134.15,68.01z"/>
				</g>
			</g>
			<g>
				<g>
					<path class="st0" d="M142.48,68.01l-1.02,6.78c-0.09,0.63,0.15,0.85,0.59,0.85c0.44,0,0.75-0.23,0.84-0.85l1.02-6.78h1.31
						l-1,6.69c-0.21,1.41-1.03,2.21-2.39,2.21s-1.94-0.8-1.73-2.21l1-6.69H142.48z"/>
				</g>
			</g>
			<g>
				<g>
					<path class="st0" d="M152.11,73.52l-0.17,1.17c-0.21,1.41-1.03,2.21-2.39,2.21s-1.94-0.8-1.73-2.21l0.69-4.57
						c0.21-1.41,1.03-2.21,2.39-2.21s1.94,0.8,1.73,2.21l-0.13,0.85h-1.31l0.14-0.94c0.09-0.63-0.15-0.87-0.59-0.87
						c-0.44,0-0.75,0.24-0.85,0.87l-0.71,4.75c-0.09,0.63,0.15,0.85,0.59,0.85c0.44,0,0.75-0.23,0.85-0.85l0.19-1.26H152.11z"/>
				</g>
			</g>
			<g>
				<g>
					<path class="st0" d="M156.54,68.01h1.38l-1.32,8.79h-1.38L156.54,68.01z"/>
				</g>
			</g>
			<g>
				<g>
					<path class="st0" d="M161.26,70.12c0.21-1.41,1.07-2.21,2.43-2.21s1.98,0.8,1.77,2.21l-0.69,4.57
						c-0.21,1.41-1.07,2.21-2.43,2.21c-1.36,0-1.98-0.8-1.77-2.21L161.26,70.12z M161.94,74.78c-0.09,0.63,0.15,0.87,0.59,0.87
						s0.75-0.24,0.85-0.87l0.71-4.75c0.09-0.63-0.15-0.87-0.59-0.87c-0.44,0-0.75,0.24-0.85,0.87L161.94,74.78z M165.43,66.16
						l-1.49,1.39h-0.93l1.06-1.39H165.43z"/>
				</g>
			</g>
			<g>
				<g>
					<path class="st0" d="M170.29,70.44l-0.95,6.37h-1.24l1.32-8.79h1.73l0.63,5.26l0.79-5.26h1.23l-1.32,8.79h-1.42L170.29,70.44z"
						/>
				</g>
			</g>
			<g>
				<g>
					<path class="st0" d="M182.25,68.01h2.19c1.38,0,1.94,0.77,1.73,2.17l-0.67,4.44c-0.21,1.41-1,2.17-2.39,2.17h-2.19
						L182.25,68.01z M183.45,69.27l-0.94,6.28h0.78c0.44,0,0.74-0.23,0.83-0.85l0.69-4.57c0.09-0.63-0.14-0.85-0.58-0.85H183.45z"/>
				</g>
			</g>
			<g>
				<g>
					<path class="st0" d="M190.14,68.01h1.38l-1.32,8.79h-1.38L190.14,68.01z"/>
				</g>
			</g>
			<g>
				<g>
					<path class="st0" d="M196.78,71.91h1.93l-0.42,2.79c-0.21,1.41-1.03,2.21-2.39,2.21s-1.94-0.8-1.73-2.21l0.69-4.57
						c0.21-1.41,1.03-2.21,2.39-2.21s1.94,0.8,1.73,2.21l-0.13,0.85h-1.31l0.14-0.94c0.09-0.63-0.15-0.87-0.59-0.87
						c-0.44,0-0.75,0.24-0.85,0.87l-0.71,4.75c-0.09,0.63,0.15,0.85,0.59,0.85c0.44,0,0.75-0.23,0.84-0.85l0.24-1.62h-0.63
						L196.78,71.91z"/>
				</g>
			</g>
			<g>
				<g>
					<path class="st0" d="M202.95,68.01h1.38l-1.32,8.79h-1.38L202.95,68.01z"/>
				</g>
			</g>
			<g>
				<g>
					<path class="st0" d="M207.7,68.01h4.27l-0.19,1.25h-1.44l-1.13,7.53h-1.38l1.13-7.53h-1.45L207.7,68.01z"/>
				</g>
			</g>
			<g>
				<g>
					<path class="st0" d="M218.01,76.8h-1.39v-1.59h-1.7l-0.48,1.59h-1.27l2.72-8.79h2.02L218.01,76.8z M215.27,74.01h1.33v-4.44
						L215.27,74.01z"/>
				</g>
			</g>
			<g>
				<g>
					<path class="st0" d="M222.73,68.01h1.38l-1.13,7.53h2.27l-0.19,1.26h-3.65L222.73,68.01z"/>
				</g>
			</g>
			<g>
				<g>
					<path class="st0" d="M235.29,71.72h1.9L237,72.97h-1.9l-0.39,2.57h2.39l-0.19,1.26h-3.77l1.32-8.79h3.77l-0.19,1.25h-2.39
						L235.29,71.72z"/>
				</g>
			</g>
			<g>
				<g>
					<path class="st0" d="M242.71,70.44l-0.95,6.37h-1.24l1.32-8.79h1.73l0.63,5.26l0.79-5.26h1.23l-1.32,8.79h-1.42L242.71,70.44z"
						/>
				</g>
			</g>
			<g>
				<g>
					<path class="st0" d="M256.67,74.25l1.88-6.24h1.92l-1.32,8.79h-1.31l0.95-6.3l-1.9,6.3h-1.31l-0.1-6.21l-0.93,6.21h-1.2
						l1.32-8.79h1.92L256.67,74.25z"/>
				</g>
			</g>
			<g>
				<g>
					<path class="st0" d="M263.81,70.12c0.21-1.41,1.07-2.21,2.43-2.21c1.36,0,1.98,0.8,1.77,2.21l-0.69,4.57
						c-0.21,1.41-1.07,2.21-2.43,2.21c-1.36,0-1.98-0.8-1.77-2.21L263.81,70.12z M264.49,74.78c-0.09,0.63,0.15,0.87,0.59,0.87
						c0.44,0,0.75-0.24,0.85-0.87l0.71-4.75c0.09-0.63-0.15-0.87-0.59-0.87c-0.44,0-0.75,0.24-0.85,0.87L264.49,74.78z"/>
				</g>
			</g>
			<g>
				<g>
					<path class="st0" d="M271.97,68.01h2.19c1.38,0,1.95,0.77,1.73,2.17l-0.67,4.44c-0.21,1.41-1,2.17-2.39,2.17h-2.19
						L271.97,68.01z M273.17,69.27l-0.94,6.28H273c0.44,0,0.74-0.23,0.83-0.85l0.69-4.57c0.09-0.63-0.14-0.85-0.57-0.85H273.17z"/>
				</g>
			</g>
			<g>
				<g>
					<path class="st0" d="M283,76.8h-1.39v-1.59h-1.7l-0.48,1.59h-1.27l2.72-8.79h2.02L283,76.8z M280.26,74.01h1.33l0-4.44
						L280.26,74.01z"/>
				</g>
			</g>
		</g>
		<g>
			<g>
				<path class="st1" d="M117.69,62.63V31.19h4.79v27.37h6.06v4.07H117.69z"/>
			</g>
			<g>
				<path class="st1" d="M129.49,62.63l4.48-31.45h6.32l4.77,31.45h-4.47l-0.75-5.61h-5.07l-0.68,5.61H129.49z M139.36,53.18
					l-2.11-15.79h-0.07l-1.93,15.79H139.36z"/>
			</g>
			<g>
				<path class="st1" d="M154.19,62.63V31.19h5.95l4.47,22.98l4.2-22.98h5.99v31.45h-4.27V50.91l0.18-10.76l-4.23,22.33h-3.81
					l-4.41-22.33l0.18,10.76v11.72H154.19z"/>
			</g>
			<g>
				<path class="st1" d="M191.02,60.72c-1.1,1.51-2.85,2.27-5.26,2.27c-2.41,0-4.18-0.76-5.31-2.28c-1.13-1.52-1.69-3.81-1.69-6.87
					V39.46c0-5.76,2.35-8.65,7.06-8.65c2.43,0,4.18,0.73,5.24,2.2c1.07,1.46,1.6,3.62,1.6,6.45v14.38
					C192.66,56.92,192.11,59.21,191.02,60.72z M184.01,57.76c0.28,0.73,0.85,1.09,1.72,1.09c0.87,0,1.44-0.37,1.72-1.12
					c0.27-0.74,0.41-2.02,0.41-3.83V39.25c0-1.49-0.14-2.58-0.42-3.26c-0.28-0.68-0.83-1.03-1.64-1.03c-0.82,0-1.39,0.34-1.72,1.03
					c-0.33,0.69-0.49,1.77-0.49,3.24V53.9C183.59,55.74,183.73,57.03,184.01,57.76z"/>
			</g>
			<g>
				<path class="st1" d="M196.64,62.63V31.19h4.79v27.37h6.06v4.07H196.64z"/>
			</g>
			<g>
				<path class="st1" d="M209.85,62.63V31.19h7.06c2.31,0,3.99,0.68,5.03,2.05c1.04,1.36,1.56,3.37,1.56,6.03l0.02,14.19
					c0,3.17-0.52,5.49-1.57,6.97c-1.05,1.48-2.78,2.22-5.2,2.22H209.85z M214.64,58.92h1.57c0.88,0,1.52-0.29,1.92-0.86
					c0.4-0.57,0.6-1.62,0.6-3.14l-0.02-15.53c0-1.63-0.2-2.79-0.6-3.48c-0.4-0.69-1.09-1.04-2.06-1.04h-1.41V58.92z"/>
			</g>
			<g>
				<path class="st1" d="M227.46,62.63V31.19H238v4.13h-5.75v9.15h5.47v4.04h-5.47v10.01h5.97v4.13H227.46z"/>
			</g>
			<g>
				<path class="st1" d="M248,47.86l-1.54-0.07v14.85h-4.79V31.19h7.92c1.64,0,2.87,0.33,3.68,0.99c0.81,0.66,1.34,1.58,1.6,2.77
					c0.26,1.19,0.38,2.73,0.38,4.65c0,1.91-0.2,3.37-0.61,4.37c-0.4,1-1.16,1.67-2.25,2.02c1.08,0.19,1.84,0.92,2.27,2.2
					c0.43,1.27,0.64,3.93,0.64,7.96c0,4.03,0.06,6.2,0.18,6.49h-4.79c-0.12-0.24-0.18-4-0.18-11.27c0-1.39-0.17-2.32-0.5-2.78
					C249.68,48.12,249.01,47.88,248,47.86z M246.48,44.07h1.91c0.61,0,1.06-0.14,1.35-0.41c0.29-0.27,0.49-0.74,0.61-1.41
					c0.11-0.67,0.17-1.69,0.17-3.06V39c0-1.7-0.14-2.82-0.43-3.34c-0.29-0.52-0.95-0.79-1.98-0.79h-1.63V44.07z"/>
			</g>
			<g>
				<path class="st1" d="M259.53,62.63V31.19h4.79v31.45H259.53z"/>
			</g>
			<g>
				<path class="st1" d="M267.42,62.63l4.48-31.45h6.32L283,62.63h-4.47l-0.75-5.61h-5.07l-0.68,5.61H267.42z M277.28,53.18
					l-2.11-15.79h-0.07l-1.93,15.79H277.28z"/>
			</g>
		</g>
	</g>
	<g>
		<g>
			<g>
				<g>
					<path class="st2" d="M37.1,34.79c-5.12-0.93-10.3-1.4-15.52-1.05c-2.05,0.14-4.07,0.49-6,1.2c-1.33,0.49-2.55,1.15-3.55,2.17
						c-1.09,1.1-1.73,2.43-1.89,3.98c-0.39,3.77,0.69,7.07,3.5,9.62c1.42,1.3,3.03,2.49,4.73,3.38c8.26,4.35,17.13,6.84,26.27,8.47
						c0.88,0.16,1.76,0.32,2.64,0.49c0.04,0.01,0.24,0.03,0.2,0.18c-0.36,0.74-0.97,1.34-1.58,1.86c-0.3,0.25-0.94,0.25-1.39,0.16
						c-3.14-0.6-6.29-1.17-9.39-1.9c-5.95-1.4-11.67-3.49-17.22-6.05c-2.75-1.27-5.24-2.92-7.26-5.2
						c-3.09-3.49-4.15-7.59-3.42-12.12c0.49-3.05,2.29-5.27,4.94-6.8c2.7-1.56,5.68-2.16,8.74-2.43c5.2-0.46,10.32,0.08,15.44,0.84
						L37.1,34.79z"/>
				</g>
				<g>
					<path class="st3" d="M101.55,18.47c-1.11-0.3-2.1-0.58-3.12-0.85c0-0.34,0.03-0.59,0-0.83c-0.11-0.94-0.62-1.32-1.52-1.15
						c-2.12,0.39-5.95,4.26-6.33,6.39c-0.24,1.37,0.32,1.87,1.68,1.51c0.09-0.03,0.19-0.05,0.29-0.09c0.56-0.19,1.18-0.63,1.66-0.52
						c0.99,0.23,1.91,0.77,2.85,1.18c0.19,0.09,0.43,0.19,0.43,0.19c-0.31,0.37-0.79,0.74-1.42,1.23c-1.86,1.7-3.9,3.14-6.25,4.05
						c-3.49,1.35-6.27,3.6-8.9,6.18c-9.08,8.87-18.21,17.69-27.37,26.48c-4.25,4.08-8.61,8.05-12.94,12.06
						c-0.57,0.52-1.21,0.96-1.82,1.44c-0.09-0.08-0.17-0.16-0.26-0.24c0.34-0.46,0.64-0.94,1.02-1.36c2.17-2.42,4.31-4.86,6.55-7.22
						c4.88-5.15,9.8-10.27,14.72-15.37c6.73-6.97,13.48-13.93,20.25-20.88c1.41-1.45,2.56-3.05,3.41-4.89
						c2.25-4.83,5.86-8.54,10-11.77c1.14-0.89,2.4-1.61,3.85-1.93c1.45-0.32,2.69,0.01,3.66,1.13c0.96,1.11,0.91,2.39,0.42,3.67
						C102.21,17.42,101.86,17.91,101.55,18.47z"/>
				</g>
				<g>
					<path class="st2" d="M93.52,20.96c0.68-0.7,1.26-1.37,1.92-1.95c0.21-0.18,0.66-0.21,0.96-0.13c2.33,0.61,4.61,1.35,6.65,2.66
						c4.12,2.66,5.05,7.43,2.24,11.47c-1.14,1.64-2.69,2.8-4.44,3.72c-2.73,1.44-5.69,2.16-8.71,2.64
						c-3.96,0.63-7.96,0.59-11.96,0.55c-0.08,0-0.15-0.1-0.4-0.27c0.88-0.89,1.69-1.82,2.64-2.58c0.35-0.29,1.03-0.23,1.57-0.22
						c3.87,0.05,7.69-0.3,11.43-1.32c1.98-0.55,3.9-1.27,5.58-2.5c1.28-0.94,2.24-2.11,2.64-3.7c0.43-1.72,0.1-3.25-1.34-4.29
						c-1.28-0.93-2.68-1.74-4.12-2.4C96.73,21.98,95.19,21.55,93.52,20.96z"/>
				</g>
				<g>
					<path class="st2" d="M86.89,18.37c0,0-7.19-1.53-10.29-6.72c-3.1-5.2,1.31-5.41,2.45-3.54c1.15,1.88,3.9,5.41,10.25,7.65
						C89.3,15.76,87.92,17,86.89,18.37z"/>
				</g>
			</g>
			<g>
				<path class="st1" d="M95.57,96.63l-2.35,3.86l1.98,1.21l2.35-3.86l1.88,2.85l1.11-10l-8.37,5.58L95.57,96.63z M92.18,96.26"/>
			</g>
			<g>
				<path class="st1" d="M69.14,49.14c-0.08,0.91-0.08,1.44-0.08,2.35c0.01,1.03,0.12,2.44,0.22,3.48c0.28,2.36,0.83,4.68,1.65,6.92
					l0.02,0.07c0.99,2.62,1.67,5.29,2.06,8.01l0,0c0.15,1.24,0.33,2.54,0.33,3.52c0.05,1.04,0.06,2.08,0.02,3.12l-0.31,8.39
					c-11.14,1.74-22.41,1.74-33.55,0l-0.31-8.39c-0.04-1.13-0.03-2.26,0.03-3.38c0.15-1.23,0.22-2.31,0.36-3.52
					c0.39-2.63,1.07-5.22,2.02-7.75l0.02-0.05c0.82-2.24,1.37-4.57,1.65-6.93c0.12-0.99,0.22-2.1,0.22-3.5
					c0.02-3.21-0.47-6.43-1.45-9.51l-1.79-5.59c-0.42-1.48-0.87-2.67-1.24-3.87l-2.84-8.9c-0.19-0.59-0.13-1.21,0.15-1.76
					c0.28-0.55,0.77-0.95,1.35-1.13L46.36,18c1.27-0.34,2.54-0.86,3.24-1.39c1.37-1.01,2.32-2.55,2.57-4.28l0.35-2.46
					c0.03-0.24,0.24-0.42,0.48-0.42h6.57c0.24,0,0.45,0.18,0.48,0.42l0.35,2.46c0.25,1.73,1.2,3.27,2.57,4.28
					c0.89,0.62,2.06,1.03,3.24,1.39l8.67,2.71c0.59,0.18,1.07,0.59,1.35,1.13c0.29,0.55,0.34,1.17,0.15,1.76l-2.94,9.2
					c-0.35,1.23-0.67,2.05-1.23,3.84l-0.37,1.16l5.51-5.71l2.55-7.98c0.29-0.92,0.16-2.5-0.56-3.89c-0.72-1.38-1.94-2.4-3.42-2.87
					l-10.01-3.13c-1.08-0.34-1.88-1.28-2.04-2.39l-0.35-2.46c-0.28-1.96-1.98-3.44-3.96-3.44H53c-1.98,0-3.68,1.48-3.96,3.44
					l-0.35,2.46c-0.16,1.12-0.96,2.06-2.04,2.39l-10.01,3.13c-1.49,0.47-2.7,1.48-3.42,2.87c-0.72,1.38-0.85,2.96-0.38,4.45
					l5.87,18.36c1.83,5.73,1.7,12-0.37,17.65l-0.01,0.03c-1.95,5.17-2.84,10.56-2.64,16.02l0.36,9.82c0.03,0.83,0.64,1.53,1.46,1.67
					c6.23,1.06,12.5,1.59,18.77,1.59c6.27,0,12.54-0.53,18.77-1.59c0.82-0.14,1.43-0.84,1.46-1.67l0.36-9.82
					c0.2-5.46-0.69-10.85-2.64-16.02c0,0-0.01-0.02-0.01-0.02c-1.91-5.21-2.02-10.71-0.95-15.55L69.14,49.14z M73.01,69.97"/>
			</g>
			<g>
				<path class="st2" d="M51.57,66.18c0.72-0.76,1.27-1.32,1.79-1.91c0.41-0.46,0.89-0.32,1.39-0.28c3.09,0.24,6.18,0.54,9.27,0.69
					c4.44,0.22,8.89,0.33,13.34,0.49c0.34,0.01,0.68,0.06,1.05,0.1c-0.03,0.21-0.03,0.37-0.08,0.5c-0.72,1.76-0.72,1.77-2.61,1.75
					c-7.5-0.09-14.99-0.3-22.46-1.08C52.77,66.39,52.3,66.29,51.57,66.18z"/>
			</g>
		</g>
		<g>
			<path class="st2" d="M37.3,61.04c0,0,4.14,0.94,5.54,1.2l-0.67,2.58c0,0-4.84-0.92-6.92-1.43L37.3,61.04z"/>
		</g>
		<g>
			<path class="st0" d="M102.29,88.03c-0.2,0-0.39-0.04-0.58-0.14c-0.64-0.32-0.9-1.1-0.58-1.74c3.46-6.94,2.56-12.21-2.53-14.83
				c-4.39-2.27-12.13-3.19-22.11-3.65c-5.46-0.25-5.77-2.86-0.39-2.62c10.57,0.48,18.83,1.45,23.69,3.95
				c6.38,3.29,7.75,10.13,3.67,18.3C103.22,87.77,102.77,88.03,102.29,88.03z"/>
		</g>
	</g>
</g>
</svg>
