<svg id="icons" enable-background="new 0 0 64 64" height="512" viewBox="0 0 64 64" width="512" xmlns="http://www.w3.org/2000/svg"><g><g><path d="m40 38.505v15h-4v-15c0-2.21-1.79-4-4-4s-4 1.79-4 4v15h-4v-15c0-4.41 3.58-8 8-8s8 3.59 8 8z" fill="#d7e9ff"/></g><g><path d="m32 53.505h-4v-15c0-2.21 1.79-4 4-4s4 1.79 4 4v15z" fill="#fff"/></g><g><path d="m52 12.745 11 2.76c0 2.76-2.24 5-5 5-.7 0-1.37-.12-2-.34-2.33-.82-4-3.04-4-5.66z" fill="#fff"/></g><g><path d="m19.99 38.505h.01v15c-4.42 0-8-3.58-8-8v-3h4v-4h-4v-2.01l3-8.99-3-14.76 8.99-2.25c0 .12 0 .24.01.359.19 5.91 5.04 10.65 11 10.65s10.81-4.74 11-10.65c.01-.119.01-.239.01-.359l8.99 2.25-3 14.76 3 8.99v2.01h-4v4h4v3c0 4.42-3.57 7.99-7.99 8v-14.99-.01c-.01-6.64-5.38-12-12.01-12s-12 5.36-12.01 12z" fill="#94c1ff"/></g><g><path d="m43 10.854c-.19 5.91-5.04 10.65-11 10.65s-10.81-4.74-11-10.65c.3 3.7 5.11 6.65 11 6.65s10.7-2.949 11-6.65z" fill="#5c9eff"/></g><g><path d="m54 38.505v4h-2-4v-4h4z" fill="#d7e9ff"/></g><g><path d="m63 15.505v15c-3.87 0-7-3.13-7-7v-3.34c.63.22 1.3.34 2 .34 2.76 0 5-2.24 5-5z" fill="#d7e9ff"/></g><g><path d="m1 15.505 11-2.76v1.76c0 2.62-1.67 4.84-4 5.66-.63.22-1.3.34-2 .34-2.76 0-5-2.24-5-5z" fill="#fff"/></g><g><path d="m8 20.165v3.34c0 3.87-3.13 7-7 7v-15c0 2.76 2.24 5 5 5 .7 0 1.37-.12 2-.34z" fill="#d7e9ff"/></g><g><path d="m16 38.505v4h-4-2v-4h2z" fill="#d7e9ff"/></g><g><path d="m44.01 38.515v14.99h-.01-4v-15c0-4.41-3.58-8-8-8s-8 3.59-8 8v15h-4v-15h-.01c.01-6.64 5.38-12 12.01-12s12 5.36 12.01 12z" fill="#fff"/></g></g><g><g><path d="m52 37.5c-.419 0-.81-.265-.949-.684l-2.997-8.998c-.055-.166-.065-.344-.031-.516l2.995-14.756c.11-.54.63-.886 1.18-.781.541.11.891.638.781 1.18l-2.942 14.494 2.913 8.744c.174.524-.109 1.091-.633 1.266-.106.034-.213.051-.317.051z" fill="#116fff"/></g><g><path d="m32 22.504c-6.623 0-12.011-5.389-12.011-12.012 0-.553.447-1 1-1s1 .447 1 1c0 5.521 4.491 10.012 10.011 10.012s10.011-4.491 10.011-10.012c0-.553.447-1 1-1s1 .447 1 1c0 6.623-5.388 12.012-12.011 12.012z" fill="#116fff"/></g><g><path d="m32 18.506c-6.735 0-12.011-3.521-12.011-8.014 0-.553.447-1 1-1s1 .447 1 1c0 3.26 4.584 6.014 10.011 6.014s10.011-2.754 10.011-6.014c0-.553.447-1 1-1s1 .447 1 1c0 4.493-5.276 8.014-12.011 8.014z" fill="#116fff"/></g><g><path d="m44 54.508c-.553 0-1-.447-1-1s.447-1 1-1c3.859 0 7-3.141 7-7 0-.553.447-1 1-1s1 .447 1 1c0 4.963-4.037 9-9 9z" fill="#116fff"/></g><g><path d="m52 46.508c-.553 0-1-.447-1-1v-3.004c0-.553.447-1 1-1s1 .447 1 1v3.004c0 .553-.447 1-1 1z" fill="#116fff"/></g><g><path d="m12 37.5c-.104 0-.211-.017-.316-.051-.523-.175-.807-.741-.633-1.266l2.913-8.744-2.944-14.494c-.109-.541.24-1.069.781-1.18.549-.102 1.069.241 1.18.781l2.997 14.756c.034.172.023.35-.031.516l-2.997 8.998c-.14.419-.531.684-.95.684z" fill="#116fff"/></g><g><path d="m20 54.508c-4.963 0-9-4.037-9-9 0-.553.447-1 1-1s1 .447 1 1c0 3.859 3.141 7 7 7 .553 0 1 .447 1 1s-.447 1-1 1z" fill="#116fff"/></g><g><path d="m44 54.508h-24c-.553 0-1-.447-1-1s.447-1 1-1h24c.553 0 1 .447 1 1s-.447 1-1 1z" fill="#116fff"/></g><g><path d="m53.999 43.504h-5.999c-.553 0-1-.447-1-1v-4c0-.553.447-1 1-1h5.999c.553 0 1 .447 1 1v4c0 .553-.447 1-1 1zm-4.999-2h3.999v-2h-3.999z" fill="#116fff"/></g><g><path d="m52 39.504c-.553 0-1-.447-1-1v-2.004c0-.553.447-1 1-1s1 .447 1 1v2.004c0 .553-.447 1-1 1z" fill="#116fff"/></g><g><path d="m12.002 46.508c-.553 0-1-.447-1-1v-3.004c0-.553.447-1 1-1s1 .447 1 1v3.004c0 .553-.447 1-1 1z" fill="#116fff"/></g><g><path d="m16.002 43.504h-5.999c-.553 0-1-.447-1-1v-4c0-.553.447-1 1-1h5.999c.553 0 1 .447 1 1v4c0 .553-.447 1-1 1zm-4.999-2h3.999v-2h-3.999z" fill="#116fff"/></g><g><path d="m12.002 39.504c-.553 0-1-.447-1-1v-2.004c0-.553.447-1 1-1s1 .447 1 1v2.004c0 .553-.447 1-1 1z" fill="#116fff"/></g><g><path d="m40 39.51c-.553 0-1-.447-1-1 0-3.859-3.141-7-7-7s-7 3.141-7 7c0 .553-.447 1-1 1s-1-.447-1-1c0-4.963 4.037-9 9-9s9 4.037 9 9c0 .553-.447 1-1 1z" fill="#116fff"/></g><g><path d="m44.008 39.512c-.553 0-1-.447-1-1 0-6.069-4.938-11.008-11.008-11.008s-11.008 4.938-11.008 11.008c0 .553-.447 1-1 1s-1-.447-1-1c0-7.173 5.835-13.008 13.008-13.008s13.008 5.835 13.008 13.008c0 .552-.447 1-1 1z" fill="#116fff"/></g><g><path d="m36.002 39.51c-.553 0-1-.447-1-1 0-1.655-1.347-3.002-3.002-3.002s-3.002 1.347-3.002 3.002c0 .553-.447 1-1 1s-1-.447-1-1c0-2.758 2.244-5.002 5.002-5.002s5.002 2.244 5.002 5.002c0 .553-.447 1-1 1z" fill="#116fff"/></g><g><path d="m24 54.508c-.553 0-1-.447-1-1v-14.998c0-.553.447-1 1-1s1 .447 1 1v14.998c0 .553-.447 1-1 1z" fill="#116fff"/></g><g><path d="m20 54.508c-.553 0-1-.447-1-1v-14.998c0-.553.447-1 1-1s1 .447 1 1v14.998c0 .553-.447 1-1 1z" fill="#116fff"/></g><g><path d="m28 54.508c-.553 0-1-.447-1-1v-14.998c0-.553.447-1 1-1s1 .447 1 1v14.998c0 .553-.447 1-1 1z" fill="#116fff"/></g><g><path d="m32 54.508c-.553 0-1-.447-1-1v-14.998c0-.553.447-1 1-1s1 .447 1 1v14.998c0 .553-.447 1-1 1z" fill="#116fff"/></g><g><path d="m36 54.508c-.553 0-1-.447-1-1v-14.998c0-.553.447-1 1-1s1 .447 1 1v14.998c0 .553-.447 1-1 1z" fill="#116fff"/></g><g><path d="m40 54.508c-.553 0-1-.447-1-1v-14.998c0-.553.447-1 1-1s1 .447 1 1v14.998c0 .553-.447 1-1 1z" fill="#116fff"/></g><g><path d="m44.008 54.508c-.553 0-1-.447-1-1v-14.998c0-.553.447-1 1-1s1 .447 1 1v14.998c0 .553-.447 1-1 1z" fill="#116fff"/></g><g><g><path d="m12.002 15.506c-.553 0-1-.447-1-1v-1.76c0-.553.447-1 1-1s1 .447 1 1v1.76c0 .553-.447 1-1 1z" fill="#116fff"/></g><g><g><path d="m.999 16.506c-.447 0-.855-.303-.969-.757-.135-.535.19-1.079.727-1.213l19.989-5.014c.529-.134 1.079.19 1.213.727.135.535-.19 1.079-.727 1.213l-19.989 5.014c-.081.02-.163.03-.244.03z" fill="#116fff"/></g><g><path d="m6.002 21.506c-.553 0-1-.447-1-1s.447-1 1-1c2.757 0 5-2.243 5-5 0-.553.447-1 1-1s1 .447 1 1c0 3.859-3.141 7-7 7z" fill="#116fff"/></g><g><path d="m6 21.506c-3.309 0-6-2.691-6-6 0-.553.447-1 1-1s1 .447 1 1c0 2.206 1.794 4 4 4 .553 0 1 .447 1 1s-.447 1-1 1z" fill="#116fff"/></g><g><path d="m1.001 31.506c-.553 0-1-.447-1-1s.447-1 1-1c3.309 0 6-2.691 6-6 0-.553.447-1 1-1s1 .447 1 1c0 4.411-3.589 8-8 8z" fill="#116fff"/></g><g><path d="m1 31.506c-.553 0-1-.447-1-1v-15c0-.553.447-1 1-1s1 .447 1 1v15c0 .553-.447 1-1 1z" fill="#116fff"/></g><g><path d="m8.001 24.506c-.553 0-1-.447-1-1v-3.342c0-.553.447-1 1-1s1 .447 1 1v3.342c0 .553-.447 1-1 1z" fill="#116fff"/></g></g></g><g><g><path d="m51.998 15.506c-.553 0-1-.447-1-1v-1.76c0-.553.447-1 1-1s1 .447 1 1v1.76c0 .553-.447 1-1 1z" fill="#116fff"/></g><g><g><path d="m63.001 16.506c-.081 0-.162-.01-.244-.03l-19.989-5.014c-.536-.134-.861-.678-.727-1.213.134-.537.677-.862 1.213-.727l19.989 5.014c.536.134.861.678.727 1.213-.114.454-.522.757-.969.757z" fill="#116fff"/></g><g><path d="m57.998 21.506c-3.859 0-7-3.141-7-7 0-.553.447-1 1-1s1 .447 1 1c0 2.757 2.243 5 5 5 .553 0 1 .447 1 1s-.447 1-1 1z" fill="#116fff"/></g><g><path d="m58 21.506c-.553 0-1-.447-1-1s.447-1 1-1c2.206 0 4-1.794 4-4 0-.553.447-1 1-1s1 .447 1 1c0 3.308-2.691 6-6 6z" fill="#116fff"/></g><g><path d="m62.999 31.506c-4.411 0-8-3.589-8-8 0-.553.447-1 1-1s1 .447 1 1c0 3.309 2.691 6 6 6 .553 0 1 .447 1 1s-.447 1-1 1z" fill="#116fff"/></g><g><path d="m63 31.506c-.553 0-1-.447-1-1v-15c0-.553.447-1 1-1s1 .447 1 1v15c0 .553-.447 1-1 1z" fill="#116fff"/></g><g><path d="m55.999 24.506c-.553 0-1-.447-1-1v-3.342c0-.553.447-1 1-1s1 .447 1 1v3.342c0 .553-.447 1-1 1z" fill="#116fff"/></g></g></g></g></svg>