<?xml version="1.0" encoding="iso-8859-1"?>
<!-- Generator: Adobe Illustrator 19.0.0, SVG Export Plug-In . SVG Version: 6.00 Build 0)  -->
<svg version="1.1" id="Capa_1" xmlns="http://www.w3.org/2000/svg" xmlns:xlink="http://www.w3.org/1999/xlink" x="0px" y="0px"
	 viewBox="0 0 503.944 503.944" style="enable-background:new 0 0 503.944 503.944;" xml:space="preserve">
<g>
	<path style="fill:#5C9EFF;" d="M35.996,443.951v7.998c0,4.422,3.578,8,7.999,8c4.422,0,7.999-3.578,7.999-8v-7.998H35.996z"/>
	<path style="fill:#5C9EFF;" d="M451.95,443.951v7.998c0,4.422,3.577,8,7.998,8c4.422,0,8-3.578,8-8v-7.998H451.95z"/>
</g>
<rect x="299.972" y="43.991" style="fill:#FFFFFF;" width="71.991" height="23.997"/>
<polygon style="fill:#D7E9FF;" points="344.125,67.993 312.129,67.993 323.963,43.995 355.96,43.995 "/>
<rect x="147.982" y="51.991" style="fill:#CCD1D9;" width="15.998" height="15.998"/>
<path style="fill:#D7E9FF;" d="M395.955,131.984c22.076,0,39.996,17.92,39.996,39.996c0,22.075-17.92,39.995-39.996,39.995
	c-22.075,0-39.995-17.92-39.995-39.995C355.96,149.904,373.88,131.984,395.955,131.984z"/>
<path style="fill:#FFFFFF;" d="M363.959,171.98c0-20.709,15.826-37.559,35.996-39.59c-1.336-0.141-2.633-0.406-4-0.406
	c-22.075,0-39.995,17.92-39.995,39.996c0,22.075,17.92,39.995,39.995,39.995c1.367,0,2.664-0.266,4-0.406
	C379.785,209.538,363.959,192.688,363.959,171.98z"/>
<g>
	<path style="fill:#94C1FF;" d="M427.951,171.98c0,20.708-15.826,37.558-35.996,39.589c1.336,0.141,2.633,0.406,4,0.406
		c22.076,0,39.996-17.92,39.996-39.995c0-22.076-17.92-39.996-39.996-39.996c-1.367,0-2.664,0.266-4,0.406
		C412.125,134.423,427.951,151.271,427.951,171.98z"/>
	<path style="fill:#94C1FF;" d="M451.95,67.993h-15.998h-23.998h-263.97h-87.99c-8.882,0-15.998,7.116-15.998,15.998v63.993v79.991
		c0,8.882,7.116,15.998,15.998,15.998h63.993h7.999h15.998h15.998c15.998,0,47.995-63.992,79.991-63.992h55.994
		c8.881,0,15.998,7.116,15.998,15.998v151.982v8h167.98v-8V99.988C483.946,82.31,469.627,67.993,451.95,67.993z M271.97,139.983
		c-24.318,0-43.995-7.202-43.995-15.998s19.677-15.998,43.995-15.998c24.317,0,43.995,7.202,43.995,15.998
		S296.287,139.983,271.97,139.983z M395.955,211.975c-22.075,0-39.995-17.92-39.995-39.995c0-22.076,17.92-39.996,39.995-39.996
		c22.076,0,39.996,17.92,39.996,39.996C435.951,194.055,418.032,211.975,395.955,211.975z"/>
</g>
<path style="fill:#5C9EFF;" d="M451.95,67.993h-15.998c17.677,0,31.996,14.318,31.996,31.996V347.96v8h15.998v-8V99.988
	C483.946,82.31,469.627,67.993,451.95,67.993z"/>
<g style="opacity:0.3;">
	<path style="fill:#FFFFFF;" d="M59.993,227.973v-79.991V83.99c0-8.882,7.117-15.998,15.998-15.998H59.993
		c-8.882,0-15.998,7.116-15.998,15.998v63.993v79.991c0,8.882,7.116,15.998,15.998,15.998h15.999
		C67.111,243.971,59.993,236.855,59.993,227.973z"/>
</g>
<g>
	<path style="fill:#116FFF;" d="M396.198,143.983c-2.211,0-4.039-1.789-4.039-4c0-2.21,1.75-3.999,3.953-3.999h0.086
		c2.203,0,4,1.789,4,3.999C400.198,142.195,398.401,143.983,396.198,143.983z"/>
	<path style="fill:#116FFF;" d="M396.198,207.977c-2.211,0-4.039-1.789-4.039-4s1.75-4,3.953-4h0.086c2.203,0,4,1.789,4,4
		S398.401,207.977,396.198,207.977z"/>
	<path style="fill:#116FFF;" d="M373.568,153.35c-2.211,0-4.039-1.789-4.039-4c0-2.21,1.75-3.999,3.953-3.999h0.086
		c2.202,0,3.999,1.789,3.999,3.999C377.567,151.561,375.77,153.35,373.568,153.35z"/>
	<path style="fill:#116FFF;" d="M418.821,198.602c-2.211,0-4.039-1.789-4.039-4s1.75-4,3.953-4h0.086c2.202,0,3.999,1.789,3.999,4
		S421.023,198.602,418.821,198.602z"/>
	<path style="fill:#116FFF;" d="M364.186,175.979c-2.211,0-4.039-1.789-4.039-3.999c0-2.211,1.75-4,3.953-4h0.086
		c2.203,0,4,1.789,4,4C368.186,174.19,366.389,175.979,364.186,175.979z"/>
	<path style="fill:#116FFF;" d="M428.178,175.979c-2.211,0-4.038-1.789-4.038-3.999c0-2.211,1.749-4,3.952-4h0.086
		c2.203,0,4,1.789,4,4C432.178,174.19,430.381,175.979,428.178,175.979z"/>
	<path style="fill:#116FFF;" d="M373.552,198.611c-2.211,0-4.039-1.789-4.039-4s1.75-4,3.953-4h0.086c2.202,0,3.999,1.789,3.999,4
		S375.754,198.611,373.552,198.611z"/>
	<path style="fill:#116FFF;" d="M418.805,153.357c-2.211,0-4.039-1.789-4.039-4c0-2.21,1.75-3.999,3.953-3.999h0.086
		c2.202,0,3.999,1.789,3.999,3.999C422.804,151.568,421.007,153.357,418.805,153.357z"/>
</g>
<path style="fill:#FFFFFF;" d="M271.97,107.987c24.317,0,43.995,7.202,43.995,15.998s-19.678,15.998-43.995,15.998
	c-24.318,0-43.995-7.202-43.995-15.998S247.652,107.987,271.97,107.987z"/>
<g>
	<path style="fill:#D7E9FF;" d="M499.944,363.957v71.992c0,4.398-3.602,8-7.999,8H291.967v-8v-79.99h23.998h167.98h7.999
		C496.342,355.96,499.944,359.561,499.944,363.957z"/>
	<path style="fill:#D7E9FF;" d="M291.967,435.951v8H11.999c-4.397,0-7.999-3.602-7.999-8v-71.992c0-4.396,3.602-7.998,7.999-7.998
		h55.993h223.975V435.951z"/>
</g>
<g>
	<path style="fill:#FFFFFF;" d="M483.946,363.957v71.992c0,4.398-3.602,8-7.999,8h15.998c4.397,0,7.999-3.602,7.999-8v-71.992
		c0-4.396-3.602-7.998-7.999-7.998h-15.998C480.344,355.96,483.946,359.561,483.946,363.957z"/>
	<path style="fill:#FFFFFF;" d="M19.998,435.951v-71.992c0-4.396,3.602-7.998,7.999-7.998H11.999c-4.397,0-7.999,3.602-7.999,7.998
		v71.992c0,4.398,3.602,8,7.999,8h15.998C23.6,443.951,19.998,440.349,19.998,435.951z"/>
</g>
<g>
	<rect x="131.982" y="67.991" style="fill:#5C9EFF;" width="15.998" height="175.98"/>
	<rect x="483.942" y="115.991" style="fill:#5C9EFF;" width="15.998" height="63.993"/>
</g>
<rect x="483.942" y="203.971" style="fill:#D7E9FF;" width="15.998" height="39.995"/>
<g>
	<rect x="363.962" y="291.971" style="fill:#5C9EFF;" width="71.992" height="23.996"/>
	<rect x="315.962" y="347.961" style="fill:#5C9EFF;" width="167.98" height="8"/>
</g>
<polygon style="fill:#FFFFFF;" points="351.96,51.994 319.964,51.994 323.963,43.995 355.96,43.995 "/>
<g>
	<path style="fill:#116FFF;" d="M491.945,447.948H11.999C5.383,447.948,0,442.567,0,435.951v-71.992
		c0-6.615,5.383-11.998,11.999-11.998h479.945c6.616,0,11.999,5.383,11.999,11.998v71.992
		C503.944,442.568,498.561,447.948,491.945,447.948z M11.999,359.96c-2.203,0-4,1.797-4,3.998v71.992c0,2.203,1.797,4,4,4h479.945
		c2.202,0,3.999-1.797,3.999-4v-71.992c0-2.201-1.797-3.998-3.999-3.998H11.999z"/>
	<path style="fill:#116FFF;" d="M483.946,351.96c-2.211,0-4-1.789-4-4V99.988c0-2.211,1.789-4,4-4s3.999,1.789,3.999,4v247.971
		C487.945,350.171,486.157,351.96,483.946,351.96z"/>
	<path style="fill:#116FFF;" d="M315.965,351.96c-2.211,0-4-1.789-4-4V195.977c0-2.211,1.789-4,4-4c2.21,0,3.999,1.789,3.999,4
		v151.982C319.964,350.171,318.175,351.96,315.965,351.96z"/>
	<path style="fill:#116FFF;" d="M483.946,103.988c-2.211,0-4-1.789-4-4c0-15.436-12.561-27.997-27.996-27.997
		c-2.211,0-4-1.789-4-3.999c0-2.211,1.789-4,4-4c19.849,0,35.995,16.147,35.995,35.996
		C487.945,102.199,486.157,103.988,483.946,103.988z"/>
	<path style="fill:#116FFF;" d="M451.95,71.991H59.993c-2.21,0-3.999-1.789-3.999-3.999c0-2.211,1.789-4,3.999-4h391.956
		c2.21,0,3.999,1.789,3.999,4C455.949,70.202,454.16,71.991,451.95,71.991z"/>
	<path style="fill:#116FFF;" d="M315.965,199.977c-2.211,0-4-1.789-4-3.999c0-6.726-5.273-11.999-11.998-11.999
		c-2.211,0-4-1.789-4-3.999c0-2.211,1.789-4,4-4c11.029,0,19.997,8.968,19.997,19.998
		C319.964,198.188,318.175,199.977,315.965,199.977z"/>
	<path style="fill:#116FFF;" d="M43.995,231.973c-2.21,0-3.999-1.789-3.999-4V83.99c0-2.211,1.789-4,3.999-4c2.211,0,4,1.789,4,4
		v143.983C47.995,230.184,46.206,231.973,43.995,231.973z"/>
	<path style="fill:#116FFF;" d="M299.967,183.979h-55.994c-2.211,0-4-1.789-4-3.999c0-2.211,1.789-4,4-4h55.994
		c2.21,0,3.999,1.789,3.999,4C303.966,182.19,302.177,183.979,299.967,183.979z"/>
	<path style="fill:#116FFF;" d="M163.982,247.971H59.993c-2.21,0-3.999-1.789-3.999-4c0-2.21,1.789-3.999,3.999-3.999h103.989
		c2.211,0,4,1.789,4,3.999C167.982,246.182,166.193,247.971,163.982,247.971z"/>
	<path style="fill:#116FFF;" d="M163.982,247.971c-2.211,0-3.999-1.789-3.999-4c0-2.21,1.788-3.999,3.999-3.999
		c4.781,0,14.959-11.921,23.935-22.443c15.804-18.513,35.465-41.55,56.057-41.55c2.211,0,3.999,1.789,3.999,4
		c0,2.21-1.788,3.999-3.999,3.999c-16.896,0-35.238,21.482-49.971,38.746C181.495,237.38,172.45,247.971,163.982,247.971z"/>
	<path style="fill:#116FFF;" d="M59.993,247.971c-11.029,0-19.997-8.968-19.997-19.998c0-2.211,1.789-4,3.999-4c2.211,0,4,1.789,4,4
		c0,6.726,5.272,11.999,11.998,11.999c2.211,0,4,1.789,4,3.999C63.993,246.182,62.204,247.971,59.993,247.971z"/>
	<path style="fill:#116FFF;" d="M43.995,87.99c-2.21,0-3.999-1.789-3.999-4c0-11.03,8.968-19.998,19.997-19.998c2.211,0,4,1.789,4,4
		c0,2.21-1.789,3.999-4,3.999c-6.726,0-11.998,5.273-11.998,11.999C47.995,86.201,46.206,87.99,43.995,87.99z"/>
	<path style="fill:#116FFF;" d="M147.984,239.973c-2.211,0-3.999-1.789-3.999-4V75.991c0-2.211,1.788-4,3.999-4s4,1.789,4,4v159.981
		C151.984,238.184,150.195,239.973,147.984,239.973z"/>
	<path style="fill:#116FFF;" d="M131.986,239.973c-2.211,0-4-1.789-4-4V75.991c0-2.211,1.789-4,4-4s3.999,1.789,3.999,4v159.981
		C135.985,238.184,134.197,239.973,131.986,239.973z"/>
	<path style="fill:#116FFF;" d="M123.987,335.961c-2.211,0-4-1.789-4-4v-79.99c0-2.21,1.789-3.999,4-3.999s3.999,1.789,3.999,3.999
		v79.991C127.986,334.172,126.198,335.961,123.987,335.961z"/>
	<path style="fill:#116FFF;" d="M107.989,327.961c-1.023,0-2.047-0.389-2.828-1.17l-7.999-8c-1.562-1.562-1.562-4.094,0-5.656
		s4.094-1.562,5.655,0l7.999,8c1.562,1.562,1.562,4.094,0,5.656C110.035,327.573,109.012,327.961,107.989,327.961z"/>
	<path style="fill:#116FFF;" d="M139.985,327.961h-31.996c-2.211,0-4-1.787-4-3.998s1.789-4,4-4h31.996c2.211,0,4,1.789,4,4
		S142.196,327.961,139.985,327.961z"/>
	<path style="fill:#116FFF;" d="M139.985,327.961c-1.023,0-2.047-0.389-2.828-1.17c-1.562-1.562-1.562-4.094,0-5.656l7.999-8
		c1.562-1.562,4.094-1.562,5.656,0s1.562,4.094,0,5.656l-7.999,8C142.032,327.573,141.008,327.961,139.985,327.961z"/>
	<path style="fill:#116FFF;" d="M179.98,355.96H67.993c-2.21,0-3.999-1.789-3.999-4s1.789-4,3.999-4H179.98c2.211,0,4,1.789,4,4
		S182.191,355.96,179.98,355.96z"/>
	<path style="fill:#116FFF;" d="M91.991,263.969c-2.211,0-4-1.789-4-4v-7.998c0-2.21,1.789-3.999,4-3.999
		c2.21,0,3.999,1.789,3.999,3.999v7.999C95.99,262.181,94.201,263.969,91.991,263.969z"/>
	<path style="fill:#116FFF;" d="M115.988,263.969H91.991c-2.211,0-4-1.789-4-4c0-2.209,1.789-3.998,4-3.998h23.997
		c2.211,0,3.999,1.789,3.999,3.998C119.987,262.181,118.199,263.969,115.988,263.969z"/>
	<path style="fill:#116FFF;" d="M147.984,279.967h-23.997c-2.211,0-4-1.789-4-3.998c0-2.211,1.789-4,4-4h23.997c2.211,0,4,1.789,4,4
		C151.984,278.178,150.195,279.967,147.984,279.967z"/>
	<path style="fill:#116FFF;" d="M147.984,287.967c-2.211,0-3.999-1.789-3.999-4V267.97c0-2.211,1.788-4,3.999-4s4,1.789,4,4v15.998
		C151.984,286.178,150.195,287.967,147.984,287.967z"/>
	<path style="fill:#116FFF;" d="M291.967,439.951c-2.211,0-3.999-1.789-3.999-4v-79.99c0-2.211,1.788-4,3.999-4s4,1.789,4,4v79.99
		C295.967,438.16,294.178,439.951,291.967,439.951z"/>
	<path style="fill:#116FFF;" d="M43.995,463.948c-6.616,0-11.998-5.383-11.998-12c0-2.211,1.788-4,3.999-4s4,1.789,4,4
		c0,2.203,1.797,4,3.999,4c2.203,0,4-1.797,4-4c0-2.211,1.789-4,3.999-4c2.211,0,4,1.789,4,4
		C55.994,458.565,50.612,463.948,43.995,463.948z"/>
	<path style="fill:#116FFF;" d="M459.948,463.948c-6.615,0-11.998-5.383-11.998-12c0-2.211,1.789-4,4-4c2.21,0,3.999,1.789,3.999,4
		c0,2.203,1.797,4,3.999,4c2.203,0,4-1.797,4-4c0-2.211,1.789-4,4-4s3.999,1.789,3.999,4
		C471.947,458.565,466.565,463.948,459.948,463.948z"/>
	<path style="fill:#116FFF;" d="M115.988,151.982H59.993c-2.21,0-3.999-1.789-3.999-4s1.789-4,3.999-4h55.994
		c2.211,0,3.999,1.789,3.999,4S118.199,151.982,115.988,151.982z"/>
	<path style="fill:#116FFF;" d="M147.984,63.993c-2.211,0-3.999-1.789-3.999-3.999v-7.999c0-2.211,1.788-4,3.999-4s4,1.789,4,4
		v7.999C151.984,62.203,150.195,63.993,147.984,63.993z"/>
	<path style="fill:#116FFF;" d="M163.982,55.993h-15.998c-2.211,0-3.999-1.789-3.999-3.999c0-2.211,1.788-4,3.999-4h15.998
		c2.211,0,4,1.789,4,4C167.982,54.204,166.193,55.993,163.982,55.993z"/>
	<path style="fill:#116FFF;" d="M163.982,63.993c-2.211,0-3.999-1.789-3.999-3.999v-7.999c0-2.211,1.788-4,3.999-4s4,1.789,4,4
		v7.999C167.982,62.203,166.193,63.993,163.982,63.993z"/>
	<path style="fill:#116FFF;" d="M371.958,63.993c-2.211,0-3.999-1.789-3.999-3.999V47.994h-63.993v11.999
		c0,2.21-1.789,3.999-3.999,3.999c-2.211,0-4-1.789-4-3.999V43.995c0-2.211,1.789-4,4-4h71.991c2.211,0,3.999,1.789,3.999,4v15.998
		C375.957,62.203,374.169,63.993,371.958,63.993z"/>
	<path style="fill:#116FFF;" d="M315.965,63.993c-0.602,0-1.211-0.133-1.789-0.422c-1.977-0.992-2.773-3.39-1.789-5.366
		l7.999-15.998c1-1.977,3.39-2.766,5.366-1.789c1.977,0.992,2.773,3.391,1.789,5.367l-7.999,15.998
		C318.839,63.18,317.425,63.993,315.965,63.993z"/>
	<path style="fill:#116FFF;" d="M331.963,63.993c-0.602,0-1.211-0.133-1.789-0.422c-1.977-0.992-2.773-3.39-1.789-5.366
		l7.999-15.998c0.992-1.977,3.398-2.766,5.366-1.789c1.977,0.992,2.773,3.391,1.789,5.367l-7.999,15.998
		C334.837,63.18,333.424,63.993,331.963,63.993z"/>
	<path style="fill:#116FFF;" d="M347.961,63.993c-0.602,0-1.211-0.133-1.789-0.422c-1.977-0.992-2.773-3.39-1.789-5.366
		l7.999-15.998c0.992-1.977,3.391-2.766,5.366-1.789c1.977,0.992,2.773,3.391,1.789,5.367l-7.999,15.998
		C350.836,63.18,349.422,63.993,347.961,63.993z"/>
	<path style="fill:#116FFF;" d="M411.953,71.991c-2.211,0-3.999-1.789-3.999-3.999V43.995c0-2.211,1.788-4,3.999-4s4,1.789,4,4
		v23.997C415.953,70.202,414.164,71.991,411.953,71.991z"/>
	<path style="fill:#116FFF;" d="M443.95,55.993h-15.998c-2.21,0-3.999-1.789-3.999-3.999c0-2.211,1.789-4,3.999-4h15.998
		c2.211,0,4,1.789,4,4C447.95,54.204,446.16,55.993,443.95,55.993z"/>
	<path style="fill:#116FFF;" d="M435.951,71.991c-2.211,0-4-1.789-4-3.999V51.994c0-2.211,1.789-4,4-4c2.21,0,3.999,1.789,3.999,4
		v15.998C439.951,70.202,438.161,71.991,435.951,71.991z"/>
	<path style="fill:#116FFF;" d="M499.944,119.986h-7.999c-2.211,0-4-1.789-4-4c0-2.21,1.789-3.999,4-3.999h7.999
		c2.211,0,4,1.789,4,3.999C503.944,118.197,502.155,119.986,499.944,119.986z"/>
	<path style="fill:#116FFF;" d="M499.944,183.979c-2.211,0-4-1.789-4-3.999v-63.993c0-2.21,1.789-3.999,4-3.999s4,1.789,4,3.999
		v63.993C503.944,182.19,502.155,183.979,499.944,183.979z"/>
	<path style="fill:#116FFF;" d="M499.944,183.979h-7.999c-2.211,0-4-1.789-4-3.999c0-2.211,1.789-4,4-4h7.999c2.211,0,4,1.789,4,4
		C503.944,182.19,502.155,183.979,499.944,183.979z"/>
	<path style="fill:#116FFF;" d="M499.944,207.977h-7.999c-2.211,0-4-1.789-4-4s1.789-4,4-4h7.999c2.211,0,4,1.789,4,4
		S502.155,207.977,499.944,207.977z"/>
	<path style="fill:#116FFF;" d="M499.944,247.971c-2.211,0-4-1.789-4-4v-39.995c0-2.211,1.789-4,4-4s4,1.789,4,4v39.995
		C503.944,246.182,502.155,247.971,499.944,247.971z"/>
	<path style="fill:#116FFF;" d="M499.944,247.971h-7.999c-2.211,0-4-1.789-4-4c0-2.21,1.789-3.999,4-3.999h7.999
		c2.211,0,4,1.789,4,3.999C503.944,246.182,502.155,247.971,499.944,247.971z"/>
	<path style="fill:#116FFF;" d="M435.951,319.964c-2.211,0-4-1.789-4-4v-23.996c0-2.211,1.789-4,4-4c2.21,0,3.999,1.789,3.999,4
		v23.996C439.951,318.174,438.161,319.964,435.951,319.964z"/>
	<path style="fill:#116FFF;" d="M435.951,295.965h-71.992c-2.211,0-4-1.789-4-3.998c0-2.211,1.789-4,4-4h71.992
		c2.21,0,3.999,1.789,3.999,4C439.951,294.176,438.161,295.965,435.951,295.965z"/>
	<path style="fill:#116FFF;" d="M363.959,319.964c-2.211,0-4-1.789-4-4v-23.996c0-2.211,1.789-4,4-4s4,1.789,4,4v23.996
		C367.959,318.174,366.17,319.964,363.959,319.964z"/>
	<path style="fill:#116FFF;" d="M395.955,215.975c-24.255,0-43.995-19.74-43.995-43.995s19.74-43.995,43.995-43.995
		s43.995,19.74,43.995,43.995C439.951,196.236,420.21,215.975,395.955,215.975z M395.955,135.984
		c-19.85,0-35.996,16.146-35.996,35.996c0,19.849,16.146,35.996,35.996,35.996s35.996-16.147,35.996-35.996
		S415.805,135.984,395.955,135.984z"/>
	<path style="fill:#116FFF;" d="M395.955,119.986c-2.211,0-4-1.789-4-4v-7.999c0-2.21,1.789-4,4-4s4,1.789,4,4v7.999
		C399.955,118.197,398.166,119.986,395.955,119.986z"/>
	<path style="fill:#116FFF;" d="M271.97,143.983c-23.85,0-47.995-6.866-47.995-19.998c0-26.263,95.989-26.263,95.989,0
		C319.964,137.117,295.819,143.983,271.97,143.983z M271.97,111.987c-24.045,0-39.996,7.218-39.996,11.998
		c0,4.781,15.951,11.999,39.996,11.999c24.044,0,39.995-7.218,39.995-11.999C311.965,119.205,296.014,111.987,271.97,111.987z"/>
	<path style="fill:#116FFF;" d="M291.967,127.986h-39.995c-2.211,0-4-1.789-4-4c0-2.21,1.789-3.999,4-3.999h39.995
		c2.211,0,4,1.789,4,3.999C295.967,126.197,294.178,127.986,291.967,127.986z"/>
</g>
<g>
</g>
<g>
</g>
<g>
</g>
<g>
</g>
<g>
</g>
<g>
</g>
<g>
</g>
<g>
</g>
<g>
</g>
<g>
</g>
<g>
</g>
<g>
</g>
<g>
</g>
<g>
</g>
<g>
</g>
</svg>
